<svg width="26" height="41" viewBox="0 0 26 41" fill="none" xmlns="http://www.w3.org/2000/svg">
<path fill-rule="evenodd" clip-rule="evenodd" d="M25.3065 4.38703L18.3803 0.5L0 10.3804V18.1816L4.3594 20.5L0.00991187 22.8638V36.5532L6.94283 40.317L13.9115 36.5731V30.4562L25.3065 24.3309V4.38703ZM2.51652 11.8427L18.3809 3.30915L21.5032 5.06964L6.95204 12.8099V15.58L22.8195 7.14923L22.8099 22.8473L11.4198 29.0086V35.1509L6.96838 37.5545L2.5066 35.1347V24.3189L17.1074 16.4063V19.7055L5.71734 25.9343V33.5149L8.21401 32.1727V27.3601L19.609 21.1201V12.2369L6.9604 19.0916L2.51652 16.7223V11.8427Z" fill="url(#paint0_linear_1_17)"/>
<defs>
<linearGradient id="paint0_linear_1_17" x1="12.6533" y1="0.5" x2="12.6533" y2="40.317" gradientUnits="userSpaceOnUse">
<stop stop-color="#7E5FFF"/>
<stop offset="1" stop-color="#39AAFF"/>
</linearGradient>
</defs>
</svg>
